<svg xmlns="http://www.w3.org/2000/svg" version="1.1" xmlns:xlink="http://www.w3.org/1999/xlink" xmlns:svgjs="http://svgjs.dev/svgjs" width="128" height="128" viewBox="0 0 128 128"><g transform="matrix(0.8046875,0,0,0.8046875,12.760752631578946,34.97423520833333)"><svg viewBox="0 0 95 54" data-background-color="#ffffff" preserveAspectRatio="xMidYMid meet" height="72" width="128" xmlns="http://www.w3.org/2000/svg" xmlns:xlink="http://www.w3.org/1999/xlink"><g id="tight-bounds" transform="matrix(1,0,0,1,-0.24049999999999727,0.05313999999999908)"><svg viewBox="0 0 95.481 53.89372" height="53.89372" width="95.481"><g><svg viewBox="0 0 95.481 53.89372" height="53.89372" width="95.481"><g><svg viewBox="0 0 95.481 53.89372" height="53.89372" width="95.481"><g id="textblocktransform"><svg viewBox="0 0 95.481 53.89372" height="53.89372" width="95.481" id="textblock"><g><svg viewBox="0 0 95.481 53.89372" height="53.89372" width="95.481"><g><svg viewBox="0 0 95.481 53.89372" height="53.89372" width="95.481"><g><svg xmlns="http://www.w3.org/2000/svg" xmlns:xlink="http://www.w3.org/1999/xlink" version="1.1" x="0" y="0" viewBox="0 0 90 50.800000000000004" enable-background="new 0 0 90 50.8" xml:space="preserve" width="95.481" height="53.89372" class="icon-icon-0" data-fill-palette-color="accent" id="icon-0"></svg></g></svg></g></svg></g></svg></g></svg></g></svg></g><defs></defs><mask id="ca407fd0-c238-4361-a626-bdc11faad940"><g id="SvgjsG5536"><svg viewBox="0 0 95.481 53.89372" height="53.89372" width="95.481"><g><svg viewBox="0 0 95.481 53.89372" height="53.89372" width="95.481"><g><svg viewBox="0 0 95.481 53.89372" height="53.89372" width="95.481"><g id="SvgjsG5535"><svg viewBox="0 0 95.481 53.89372" height="53.89372" width="95.481" id="SvgjsSvg5534"><g><svg viewBox="0 0 95.481 53.89372" height="53.89372" width="95.481"><g><svg viewBox="0 0 95.481 53.89372" height="53.89372" width="95.481"><g><svg xmlns="http://www.w3.org/2000/svg" xmlns:xlink="http://www.w3.org/1999/xlink" version="1.1" x="0" y="0" viewBox="0 0 90 50.800000000000004" enable-background="new 0 0 90 50.8" xml:space="preserve" width="95.481" height="53.89372" class="icon-icon-0" data-fill-palette-color="accent" id="SvgjsSvg5533"><g fill="white"><g fill="white"><path fill-rule="evenodd" clip-rule="evenodd" d="M80 2.3C80 1 78.9 0 77.6 0H12.3C11 0 10 1 10 2.3v44.3h70V2.3zM44.6 0.8c0.7 0 1.2 0.6 1.2 1.3 0 0.7-0.6 1.3-1.2 1.3-0.7 0-1.2-0.6-1.2-1.3C43.3 1.4 43.9 0.8 44.6 0.8zM75.8 42.5H14.2V4.2h61.6V42.5zM52 47.5c-0.1 0.6-0.5 0.8-1.1 0.8H39.1c-0.6 0-1-0.2-1.1-0.8H0v1.6c0 0.9 6.3 1.7 14 1.7h62c7.7 0 14-0.8 14-1.7v-1.6H52zM60.8 22.2l-11.6-4.9v3.2l8 3.1-8 3.1v3.2l11.6-4.9V22.2zM43.2 32c0.3 0 0.5-0.1 0.7-0.2 0.2-0.1 0.3-0.3 0.4-0.6 0.1-0.2 0.2-0.6 0.3-1l3.1-12.9c0.2-0.6 0.2-1 0.2-1.3 0-0.3-0.1-0.6-0.3-0.7C47.4 15 47.1 15 46.8 15c-0.4 0-0.7 0.1-0.9 0.4-0.1 0.3-0.3 0.7-0.5 1.4l-3.1 12.9c-0.1 0.7-0.2 1.1-0.2 1.3C42.1 31.6 42.4 32 43.2 32zM40.8 26.6l-8-3.1 8-3v-3.2l-11.7 4.9v2.7l11.7 4.9V26.6z" fill="white"></path></g></g></svg></g></svg></g></svg></g></svg></g></svg></g></svg></g><defs><mask></mask></defs></svg><rect width="95.481" height="53.89372" fill="black" stroke="none" visibility="hidden"></rect></g></mask><linearGradient x1="0" x2="1" y1="0.5" y2="0.5" id="58e728fc-1cf0-4add-8080-4a01b80b85a9"><stop stop-color="#ffa62e" offset="0"></stop><stop stop-color="#f71b3d" offset="1"></stop></linearGradient><rect width="95.481" height="53.89372" fill="url(#58e728fc-1cf0-4add-8080-4a01b80b85a9)" mask="url(#ca407fd0-c238-4361-a626-bdc11faad940)" data-fill-palette-color="accent"></rect></svg><rect width="95.481" height="53.89372" fill="none" stroke="none" visibility="hidden"></rect></g></svg></g></svg>