<svg width="192" height="70" viewBox="0 0 192 70" fill="none" xmlns="http://www.w3.org/2000/svg">
<path fill-rule="evenodd" clip-rule="evenodd" d="M41.1919 46.0502V64.9494H46.1525C46.1525 64.9494 48.8912 64.9222 50.4964 64.1876C52.0925 63.4531 54.5773 61.7663 54.5773 55.9895C54.5773 49.9225 53.1263 48.0362 50.1064 46.6669C48.5557 45.9686 45.8169 46.0502 45.8169 46.0502H41.1919ZM36.5215 42.2141H48.4741C48.4741 42.2141 52.0834 42.4862 54.4594 44.2002C56.8445 45.9141 59.2205 49.1426 59.2205 55.5542C59.2205 61.9658 56.4455 65.557 53.8246 67.1531C51.1947 68.7401 48.202 68.7945 46.9233 68.7945H36.5215V42.2141Z" fill="black"/>
<path d="M62.2458 42.2166H81.3627V46.2975H66.8618V53.1716H80.2835V56.9714H66.8618V64.7251H81.6076V68.7879H62.2458V42.2166Z" fill="black"/>
<path d="M85.5919 42.2166H91.9219L99.1134 63.1109L106.133 42.2166H112.399V68.7879H108.019V48.1838L100.827 68.7879H97.1727L89.8814 48.2291V68.7879H85.5919V42.2166Z" fill="black"/>
<path d="M130.356 58.2204L126.257 46.6124L122.194 58.2204H130.356ZM123.926 42.2141H128.787L138.999 68.7945H134.083L131.58 61.7209H120.952L118.467 68.7945H113.652L123.926 42.2141Z" fill="black"/>
<path d="M135.585 42.2166H157.141V46.2975H148.671V68.7879H143.955V46.2975H135.585V42.2166Z" fill="black"/>
<path d="M164.869 42.2068H160.153V68.7872H164.869V42.2068Z" fill="black"/>
<path d="M188.743 48.8072C188.743 48.8072 187.174 46.6126 184.517 45.7783C181.969 44.9802 178.858 45.2704 176.745 47.2474C174.642 49.2335 173.825 52.1899 173.726 54.7654C173.626 57.3318 174.215 61.2677 176.301 63.3535C178.387 65.4302 180.89 65.8111 182.713 65.53C185.288 65.1309 186.902 63.9883 187.71 63.29C188.508 62.6008 188.952 61.9478 188.952 61.9478L191.999 64.2785C191.999 64.2785 191.364 65.3486 189.596 66.7996C188.136 68.0057 185.207 69.3751 181.887 69.366C178.342 69.357 175.412 68.2869 173.127 66.0106C170.842 63.7344 168.928 60.0434 169.101 55.0919C169.282 50.1494 171.241 46.7486 173.227 44.8624C175.213 42.9761 178.06 41.6339 181.742 41.6067C185.297 41.5885 187.61 42.6314 189.278 43.8013C191.101 45.08 191.936 46.4675 191.936 46.4675L188.743 48.8072Z" fill="black"/>
<path d="M9.2501 0H0V69.3757H9.2501V0Z" fill="#FDBB30"/>
</svg>
