<svg xmlns="http://www.w3.org/2000/svg" version="1.1" xmlns:xlink="http://www.w3.org/1999/xlink" xmlns:svgjs="http://svgjs.dev/svgjs" width="2000" height="1364" viewBox="0 0 2000 1364"><g transform="matrix(1,0,0,1,0.9372533543803456,0.5522267206476954)"><svg viewBox="0 0 362 247" data-background-color="#ffffff" preserveAspectRatio="xMidYMid meet" height="1364" width="2000" xmlns="http://www.w3.org/2000/svg" xmlns:xlink="http://www.w3.org/1999/xlink"><g id="tight-bounds" transform="matrix(1,0,0,1,-0.16964285714283278,-0.09999999999999432)"><svg viewBox="0 0 362.33928571428567 247.2" height="247.2" width="362.33928571428567"><g><svg viewBox="0 0 362.3392857142857 247.20000000000002" height="247.2" width="362.33928571428567"><g><svg viewBox="0 0 362.3392857142857 247.20000000000002" height="247.20000000000002" width="362.3392857142857"><g id="textblocktransform"><svg viewBox="0 0 362.3392857142857 247.20000000000002" height="247.20000000000002" width="362.3392857142857" id="textblock"><g><svg viewBox="0 0 362.3392857142857 247.20000000000002" height="247.20000000000002" width="362.3392857142857"><g transform="matrix(1,0,0,1,0,0)"><svg width="362.3392857142857" viewBox="1.700000000000001 -47 147.75000000000003 97.65" height="247.20000000000002" data-palette-color="url(#90737916-8a54-40f5-8151-1ea55b8df7e1)"><svg></svg><svg></svg><g class="wordmark-text-0" data-fill-palette-color="primary" id="text-0"></g></svg></g></svg></g></svg></g></svg></g><g></g></svg></g><defs></defs><mask id="cc3d65c2-a367-4414-a557-9235e092475f"><g id="SvgjsG1035"><svg viewBox="0 0 362.33928571428567 247.2" height="247.2" width="362.33928571428567"><g><svg viewBox="0 0 362.3392857142857 247.20000000000002" height="247.2" width="362.33928571428567"><g><svg viewBox="0 0 362.3392857142857 247.20000000000002" height="247.20000000000002" width="362.3392857142857"><g id="SvgjsG1034"><svg viewBox="0 0 362.3392857142857 247.20000000000002" height="247.20000000000002" width="362.3392857142857" id="SvgjsSvg1033"><g><svg viewBox="0 0 362.3392857142857 247.20000000000002" height="247.20000000000002" width="362.3392857142857"><g transform="matrix(1,0,0,1,0,0)"><svg width="362.3392857142857" viewBox="1.700000000000001 -47 147.75000000000003 97.65" height="247.20000000000002" data-palette-color="url(#90737916-8a54-40f5-8151-1ea55b8df7e1)"><svg></svg><svg></svg><g class="wordmark-text-0" data-fill-palette-color="primary" id="SvgjsG1032"><path d="M16.35 0.4c-4.433 0-7.983-0.843-10.65-2.53-2.667-1.68-4-4.253-4-7.72v0c0-1.833 0.317-3.233 0.95-4.2 0.633-0.967 1.567-1.45 2.8-1.45v0c0.9 0 1.633 0.233 2.2 0.7 0.567 0.467 0.85 1.067 0.85 1.8v0c0 0.667-0.05 1.25-0.15 1.75v0c0 0.133-0.023 0.367-0.07 0.7-0.053 0.333-0.08 0.683-0.08 1.05v0c0 1.5 0.76 2.617 2.28 3.35 1.513 0.733 3.637 1.1 6.37 1.1v0c2.833 0 5.05-0.51 6.65-1.53 1.6-1.013 2.4-2.437 2.4-4.27v0c0-1.133-0.367-2.11-1.1-2.93-0.733-0.813-1.65-1.497-2.75-2.05-1.1-0.547-2.65-1.22-4.65-2.02v0c-2.567-1-4.657-1.95-6.27-2.85-1.62-0.9-3.003-2.127-4.15-3.68-1.153-1.547-1.73-3.47-1.73-5.77v0c0-2.4 0.643-4.533 1.93-6.4 1.28-1.867 3.13-3.317 5.55-4.35 2.413-1.033 5.253-1.55 8.52-1.55v0c2.433 0 4.667 0.357 6.7 1.07 2.033 0.72 3.66 1.813 4.88 3.28 1.213 1.467 1.82 3.267 1.82 5.4v0c0 2.1-0.317 3.683-0.95 4.75-0.633 1.067-1.567 1.6-2.8 1.6v0c-0.867 0-1.59-0.267-2.17-0.8-0.587-0.533-0.88-1.167-0.88-1.9v0c0-0.633 0.05-1.217 0.15-1.75v0c0.1-1 0.15-1.633 0.15-1.9v0c0-1.4-0.683-2.467-2.05-3.2-1.367-0.733-3.067-1.1-5.1-1.1v0c-2.867 0-5.057 0.523-6.57 1.57-1.52 1.053-2.28 2.53-2.28 4.43v0c0 1.267 0.393 2.35 1.18 3.25 0.78 0.9 1.753 1.65 2.92 2.25 1.167 0.6 2.8 1.317 4.9 2.15v0c2.533 1.033 4.567 1.967 6.1 2.8 1.533 0.833 2.843 1.967 3.93 3.4 1.08 1.433 1.62 3.2 1.62 5.3v0c0 3.933-1.49 6.957-4.47 9.07-2.987 2.12-6.98 3.18-11.98 3.18zM62.55-15.35c0.433 0 0.767 0.217 1 0.65 0.233 0.433 0.35 0.983 0.35 1.65v0c0 1.6-0.483 2.55-1.45 2.85v0c-2 0.7-4.2 1.1-6.6 1.2v0c-0.633 2.8-1.883 5.043-3.75 6.73-1.867 1.68-3.983 2.52-6.35 2.52v0c-2 0-3.707-0.483-5.12-1.45-1.42-0.967-2.497-2.25-3.23-3.85-0.733-1.6-1.1-3.333-1.1-5.2v0c0-2.533 0.483-4.793 1.45-6.78 0.967-1.98 2.3-3.53 4-4.65 1.7-1.113 3.583-1.67 5.65-1.67v0c2.533 0 4.573 0.873 6.12 2.62 1.553 1.753 2.463 3.913 2.73 6.48v0c1.567-0.1 3.433-0.433 5.6-1v0c0.267-0.067 0.5-0.1 0.7-0.1zM46.15-5.05c1.067 0 1.99-0.433 2.77-1.3 0.787-0.867 1.313-2.117 1.58-3.75v0c-1.033-0.7-1.823-1.617-2.37-2.75-0.553-1.133-0.83-2.333-0.83-3.6v0c0-0.533 0.05-1.067 0.15-1.6v0h-0.25c-1.333 0-2.44 0.64-3.32 1.92-0.887 1.287-1.33 3.097-1.33 5.43v0c0 1.833 0.36 3.233 1.08 4.2 0.713 0.967 1.553 1.45 2.52 1.45zM87.35-11.15c0.433 0 0.777 0.2 1.03 0.6 0.247 0.4 0.37 0.95 0.37 1.65v0c0 1.333-0.317 2.367-0.95 3.1v0c-1.533 1.767-3.107 3.217-4.72 4.35-1.62 1.133-3.463 1.7-5.53 1.7v0c-1.7 0-2.983-0.493-3.85-1.48-0.867-0.98-1.3-2.403-1.3-4.27v0c0-0.933 0.233-2.6 0.7-5v0c0.433-2.1 0.65-3.55 0.65-4.35v0c0-0.533-0.183-0.8-0.55-0.8v0c-0.433 0-1.05 0.557-1.85 1.67-0.8 1.12-1.6 2.597-2.4 4.43-0.8 1.833-1.45 3.767-1.95 5.8v0c-0.633 2.667-2.2 4-4.7 4v0c-1 0-1.657-0.36-1.97-1.08-0.32-0.713-0.48-2.003-0.48-3.87v0c0-1.067 0.017-1.917 0.05-2.55v0l0.05-4c0-5.133 0.527-10.483 1.58-16.05 1.047-5.567 2.593-10.243 4.64-14.03 2.053-3.78 4.513-5.67 7.38-5.67v0c1.533 0 2.777 0.657 3.73 1.97 0.947 1.32 1.42 3.03 1.42 5.13v0c0 3.367-0.983 6.857-2.95 10.47-1.967 3.62-5.167 7.847-9.6 12.68v0c-0.1 1.733-0.15 3.517-0.15 5.35v0c1.1-2.833 2.327-5.14 3.68-6.92 1.347-1.787 2.68-3.063 4-3.83 1.313-0.767 2.52-1.15 3.62-1.15v0c2.167 0 3.25 1.083 3.25 3.25v0c0 1.3-0.367 3.65-1.1 7.05v0c-0.633 2.9-0.95 4.817-0.95 5.75v0c0 1.333 0.483 2 1.45 2v0c0.667 0 1.46-0.41 2.38-1.23 0.913-0.813 2.137-2.137 3.67-3.97v0c0.4-0.467 0.85-0.7 1.35-0.7zM72.5-42.05c-0.6 0-1.267 0.857-2 2.57-0.733 1.72-1.44 4.04-2.12 6.96-0.687 2.913-1.247 6.087-1.68 9.52v0c2.067-2.433 3.777-5.083 5.13-7.95 1.347-2.867 2.02-5.467 2.02-7.8v0c0-1.067-0.117-1.883-0.35-2.45-0.233-0.567-0.567-0.85-1-0.85zM90.85 0.25c-2.067 0-3.717-0.75-4.95-2.25-1.233-1.5-1.85-3.467-1.85-5.9v0c0-2.667 0.617-5.193 1.85-7.58 1.233-2.38 2.877-4.297 4.93-5.75 2.047-1.447 4.22-2.17 6.52-2.17v0c0.733 0 1.227 0.14 1.48 0.42 0.247 0.287 0.453 0.797 0.62 1.53v0c0.7-0.133 1.433-0.2 2.2-0.2v0c1.633 0 2.45 0.583 2.45 1.75v0c0 0.7-0.25 2.367-0.75 5v0c-0.767 3.833-1.15 6.5-1.15 8v0c0 0.5 0.127 0.9 0.38 1.2 0.247 0.3 0.57 0.45 0.97 0.45v0c0.633 0 1.4-0.41 2.3-1.23 0.9-0.813 2.117-2.137 3.65-3.97v0c0.4-0.467 0.85-0.7 1.35-0.7v0c0.433 0 0.777 0.2 1.03 0.6 0.247 0.4 0.37 0.95 0.37 1.65v0c0 1.333-0.317 2.367-0.95 3.1v0c-1.367 1.7-2.817 3.133-4.35 4.3-1.533 1.167-3.017 1.75-4.45 1.75v0c-1.1 0-2.107-0.377-3.02-1.13-0.92-0.747-1.613-1.77-2.08-3.07v0c-1.733 2.8-3.917 4.2-6.55 4.2zM92.65-4.8c0.733 0 1.433-0.433 2.1-1.3 0.667-0.867 1.15-2.017 1.45-3.45v0l1.85-9.2c-1.4 0.033-2.69 0.557-3.87 1.57-1.187 1.02-2.13 2.363-2.83 4.03-0.7 1.667-1.05 3.433-1.05 5.3v0c0 1.033 0.21 1.8 0.63 2.3 0.413 0.5 0.987 0.75 1.72 0.75zM111.75 0.25c-1.267 0-2.157-0.667-2.67-2-0.52-1.333-0.78-3.467-0.78-6.4v0c0-4.333 0.617-8.45 1.85-12.35v0c0.3-0.967 0.793-1.677 1.48-2.13 0.68-0.447 1.637-0.67 2.87-0.67v0c0.667 0 1.133 0.083 1.4 0.25 0.267 0.167 0.4 0.483 0.4 0.95v0c0 0.533-0.25 1.733-0.75 3.6v0c-0.333 1.333-0.6 2.49-0.8 3.47-0.2 0.987-0.367 2.213-0.5 3.68v0c0.9-2.6 1.977-4.8 3.23-6.6 1.247-1.8 2.53-3.143 3.85-4.03 1.313-0.88 2.553-1.32 3.72-1.32v0c1.167 0 1.993 0.267 2.48 0.8 0.48 0.533 0.72 1.35 0.72 2.45v0c0 1.067-0.317 3-0.95 5.8v0c-0.267 1.2-0.45 2.1-0.55 2.7v0c1.667-4.1 3.517-7.083 5.55-8.95 2.033-1.867 3.933-2.8 5.7-2.8v0c2.167 0 3.25 1.083 3.25 3.25v0c0 1.3-0.367 3.65-1.1 7.05v0c-0.633 2.9-0.95 4.817-0.95 5.75v0c0 1.333 0.483 2 1.45 2v0c0.667 0 1.46-0.41 2.38-1.23 0.913-0.813 2.137-2.137 3.67-3.97v0c0.4-0.467 0.85-0.7 1.35-0.7v0c0.433 0 0.777 0.2 1.03 0.6 0.247 0.4 0.37 0.95 0.37 1.65v0c0 1.333-0.317 2.367-0.95 3.1v0c-1.433 1.767-2.973 3.217-4.62 4.35-1.653 1.133-3.53 1.7-5.63 1.7v0c-1.7 0-2.983-0.493-3.85-1.48-0.867-0.98-1.3-2.403-1.3-4.27v0c0-0.933 0.233-2.6 0.7-5v0c0.433-2.1 0.65-3.55 0.65-4.35v0c0-0.533-0.183-0.8-0.55-0.8v0c-0.433 0-1.05 0.557-1.85 1.67-0.8 1.12-1.6 2.597-2.4 4.43-0.8 1.833-1.45 3.767-1.95 5.8v0c-0.367 1.6-0.79 2.667-1.27 3.2-0.487 0.533-1.263 0.8-2.33 0.8v0c-1.1 0-1.923-0.527-2.47-1.58-0.553-1.047-0.83-2.32-0.83-3.82v0c0-1.267 0.167-3.1 0.5-5.5v0c0.267-2.133 0.4-3.533 0.4-4.2v0c0-0.533-0.183-0.8-0.55-0.8v0c-0.5 0-1.133 0.6-1.9 1.8-0.767 1.2-1.507 2.733-2.22 4.6-0.72 1.867-1.297 3.7-1.73 5.5v0c-0.367 1.567-0.79 2.623-1.27 3.17-0.487 0.553-1.247 0.83-2.28 0.83z" fill="white" fill-rule="nonzero" stroke="none" stroke-width="1" stroke-linecap="butt" stroke-linejoin="miter" stroke-miterlimit="10" stroke-dasharray="" stroke-dashoffset="0" font-family="none" font-weight="none" font-size="none" text-anchor="none" style="mix-blend-mode: normal" opacity="1"></path><path d="M42.05 8.9c1.033 0.2 1.81 0.55 2.33 1.05 0.513 0.5 0.77 1.083 0.77 1.75v0c0 1.1-0.307 1.9-0.92 2.4-0.62 0.5-1.597 0.7-2.93 0.6v0c-3-0.233-5.343-0.393-7.03-0.48-1.68-0.08-3.887-0.137-6.62-0.17v0c-1.233 6.133-2.367 12.3-3.4 18.5v0c-0.367 2.267-0.75 4.89-1.15 7.87-0.4 2.987-0.667 5.397-0.8 7.23v0c-0.067 0.967-0.467 1.707-1.2 2.22-0.733 0.52-1.617 0.78-2.65 0.78v0c-1.1 0-1.95-0.267-2.55-0.8-0.6-0.533-0.9-1.233-0.9-2.1v0c0-0.8 0.127-2.127 0.38-3.98 0.247-1.847 0.537-3.787 0.87-5.82v0c0.367-2.033 0.65-3.8 0.85-5.3v0c0.367-2.533 0.783-5.05 1.25-7.55 0.467-2.5 0.933-4.867 1.4-7.1v0c0.1-0.5 0.217-1.077 0.35-1.73 0.133-0.647 0.283-1.37 0.45-2.17v0c-3.267 0.1-5.833 0.367-7.7 0.8-1.867 0.433-3.19 1.04-3.97 1.82-0.787 0.787-1.18 1.797-1.18 3.03v0c0 1.133 0.333 2.217 1 3.25v0c0.133 0.233 0.2 0.483 0.2 0.75v0c0 0.633-0.373 1.223-1.12 1.77-0.753 0.553-1.53 0.83-2.33 0.83v0c-0.567 0-1.033-0.167-1.4-0.5v0c-0.667-0.567-1.217-1.377-1.65-2.43-0.433-1.047-0.65-2.237-0.65-3.57v0c0-2.833 0.927-5.11 2.78-6.83 1.847-1.713 4.663-2.97 8.45-3.77 3.78-0.8 8.637-1.2 14.57-1.2v0c3.667 0 6.593 0.067 8.78 0.2 2.18 0.133 4.087 0.35 5.72 0.65zM55.05 39.25c0.433 0 0.777 0.2 1.03 0.6 0.247 0.4 0.37 0.95 0.37 1.65v0c0 1.333-0.317 2.367-0.95 3.1v0c-1.233 1.5-2.973 2.883-5.22 4.15-2.253 1.267-4.663 1.9-7.23 1.9v0c-3.5 0-6.217-0.95-8.15-2.85-1.933-1.9-2.9-4.5-2.9-7.8v0c0-2.3 0.483-4.44 1.45-6.42 0.967-1.987 2.31-3.563 4.03-4.73 1.713-1.167 3.653-1.75 5.82-1.75v0c1.933 0 3.483 0.573 4.65 1.72 1.167 1.153 1.75 2.713 1.75 4.68v0c0 2.3-0.823 4.273-2.47 5.92-1.653 1.653-4.447 2.963-8.38 3.93v0c0.833 1.533 2.417 2.3 4.75 2.3v0c1.5 0 3.21-0.527 5.13-1.58 1.913-1.047 3.57-2.42 4.97-4.12v0c0.4-0.467 0.85-0.7 1.35-0.7zM42.45 32c-1.233 0-2.273 0.717-3.12 2.15-0.853 1.433-1.28 3.167-1.28 5.2v0 0.1c1.967-0.467 3.517-1.167 4.65-2.1 1.133-0.933 1.7-2.017 1.7-3.25v0c0-0.633-0.173-1.14-0.52-1.52-0.353-0.387-0.83-0.58-1.43-0.58zM55.95 50.65c-1.267 0-2.16-0.667-2.68-2-0.513-1.333-0.77-3.467-0.77-6.4v0c0-4.333 0.617-8.45 1.85-12.35v0c0.3-0.967 0.793-1.677 1.48-2.13 0.68-0.447 1.637-0.67 2.87-0.67v0c0.667 0 1.133 0.083 1.4 0.25 0.267 0.167 0.4 0.483 0.4 0.95v0c0 0.533-0.25 1.733-0.75 3.6v0c-0.333 1.333-0.6 2.49-0.8 3.47-0.2 0.987-0.367 2.213-0.5 3.68v0c0.9-2.6 1.973-4.8 3.22-6.6 1.253-1.8 2.54-3.143 3.86-4.03 1.313-0.88 2.553-1.32 3.72-1.32v0c1.167 0 1.99 0.267 2.47 0.8 0.487 0.533 0.73 1.35 0.73 2.45v0c0 1.067-0.317 3-0.95 5.8v0c-0.267 1.2-0.45 2.1-0.55 2.7v0c1.667-4.1 3.517-7.083 5.55-8.95 2.033-1.867 3.933-2.8 5.7-2.8v0c2.167 0 3.25 1.083 3.25 3.25v0c0 1.3-0.367 3.65-1.1 7.05v0c-0.633 2.9-0.95 4.817-0.95 5.75v0c0 1.333 0.483 2 1.45 2v0c0.667 0 1.457-0.41 2.37-1.23 0.92-0.813 2.147-2.137 3.68-3.97v0c0.4-0.467 0.85-0.7 1.35-0.7v0c0.433 0 0.777 0.2 1.03 0.6 0.247 0.4 0.37 0.95 0.37 1.65v0c0 1.333-0.317 2.367-0.95 3.1v0c-1.433 1.767-2.973 3.217-4.62 4.35-1.653 1.133-3.53 1.7-5.63 1.7v0c-1.7 0-2.983-0.493-3.85-1.48-0.867-0.98-1.3-2.403-1.3-4.27v0c0-0.933 0.233-2.6 0.7-5v0c0.433-2.1 0.65-3.55 0.65-4.35v0c0-0.533-0.183-0.8-0.55-0.8v0c-0.433 0-1.05 0.557-1.85 1.67-0.8 1.12-1.6 2.597-2.4 4.43-0.8 1.833-1.45 3.767-1.95 5.8v0c-0.367 1.6-0.79 2.667-1.27 3.2-0.487 0.533-1.263 0.8-2.33 0.8v0c-1.1 0-1.923-0.527-2.47-1.58-0.553-1.047-0.83-2.32-0.83-3.82v0c0-1.267 0.167-3.1 0.5-5.5v0c0.267-2.133 0.4-3.533 0.4-4.2v0c0-0.533-0.183-0.8-0.55-0.8v0c-0.5 0-1.133 0.6-1.9 1.8-0.767 1.2-1.507 2.733-2.22 4.6-0.72 1.867-1.297 3.7-1.73 5.5v0c-0.367 1.567-0.79 2.623-1.27 3.17-0.487 0.553-1.247 0.83-2.28 0.83zM116.2 35.05c0.433 0 0.767 0.217 1 0.65 0.233 0.433 0.35 0.983 0.35 1.65v0c0 0.833-0.117 1.473-0.35 1.92-0.233 0.453-0.6 0.763-1.1 0.93v0c-2 0.7-4.2 1.1-6.6 1.2v0c-0.667 2.767-1.923 5-3.77 6.7-1.853 1.7-3.897 2.55-6.13 2.55v0c-3.367 0-5.817-1.283-7.35-3.85-1.533-2.567-2.3-6.283-2.3-11.15v0c0-4.3 0.533-8.977 1.6-14.03 1.067-5.047 2.627-9.347 4.68-12.9 2.047-3.547 4.487-5.32 7.32-5.32v0c1.533 0 2.767 0.657 3.7 1.97 0.933 1.32 1.4 3.03 1.4 5.13v0c0 2.733-0.517 5.45-1.55 8.15-1.033 2.7-2.75 5.533-5.15 8.5v0c2.233 0.167 4.05 1.09 5.45 2.77 1.4 1.687 2.233 3.763 2.5 6.23v0c1.567-0.1 3.433-0.433 5.6-1v0c0.2-0.067 0.433-0.1 0.7-0.1zM102.4 8.35c-0.667 0-1.39 0.99-2.17 2.97-0.787 1.987-1.513 4.68-2.18 8.08-0.667 3.4-1.167 7.117-1.5 11.15v0c2.2-4.033 3.96-7.593 5.28-10.68 1.313-3.08 1.97-5.82 1.97-8.22v0c0-1.067-0.123-1.883-0.37-2.45-0.253-0.567-0.597-0.85-1.03-0.85zM99.8 45.35c1.033 0 1.95-0.433 2.75-1.3 0.8-0.867 1.333-2.117 1.6-3.75v0c-1.033-0.7-1.823-1.617-2.37-2.75-0.553-1.133-0.83-2.333-0.83-3.6v0c0-0.467 0.067-1.1 0.2-1.9v0h-0.15c-1.367 0-2.507 0.677-3.42 2.03-0.92 1.347-1.38 3.153-1.38 5.42v0c0 1.9 0.36 3.35 1.08 4.35 0.713 1 1.553 1.5 2.52 1.5zM135.55 39.25c0.433 0 0.777 0.2 1.03 0.6 0.247 0.4 0.37 0.95 0.37 1.65v0c0 1.333-0.317 2.367-0.95 3.1v0c-1.233 1.5-2.973 2.883-5.22 4.15-2.253 1.267-4.663 1.9-7.23 1.9v0c-3.5 0-6.217-0.95-8.15-2.85-1.933-1.9-2.9-4.5-2.9-7.8v0c0-2.3 0.483-4.44 1.45-6.42 0.967-1.987 2.31-3.563 4.03-4.73 1.713-1.167 3.653-1.75 5.82-1.75v0c1.933 0 3.483 0.573 4.65 1.72 1.167 1.153 1.75 2.713 1.75 4.68v0c0 2.3-0.823 4.273-2.47 5.92-1.653 1.653-4.447 2.963-8.38 3.93v0c0.833 1.533 2.417 2.3 4.75 2.3v0c1.5 0 3.21-0.527 5.13-1.58 1.913-1.047 3.57-2.42 4.97-4.12v0c0.4-0.467 0.85-0.7 1.35-0.7zM122.95 32c-1.233 0-2.273 0.717-3.12 2.15-0.853 1.433-1.28 3.167-1.28 5.2v0 0.1c1.967-0.467 3.517-1.167 4.65-2.1 1.133-0.933 1.7-2.017 1.7-3.25v0c0-0.633-0.173-1.14-0.52-1.52-0.353-0.387-0.83-0.58-1.43-0.58z" fill="white" fill-rule="nonzero" stroke="none" stroke-width="1" stroke-linecap="butt" stroke-linejoin="miter" stroke-miterlimit="10" stroke-dasharray="" stroke-dashoffset="0" font-family="none" font-weight="none" font-size="none" text-anchor="none" style="mix-blend-mode: normal" opacity="1"></path></g></svg></g></svg></g></svg></g></svg></g><g></g></svg></g><defs><mask></mask></defs></svg><rect width="362.33928571428567" height="247.2" fill="black" stroke="none" visibility="hidden"></rect></g></mask><linearGradient x1="0" x2="1" y1="0.578" y2="0.595" id="90737916-8a54-40f5-8151-1ea55b8df7e1"><stop stop-color="#6ee2f5" offset="0"></stop><stop stop-color="#6454f0" offset="1"></stop></linearGradient><rect width="362.33928571428567" height="247.2" fill="url(#90737916-8a54-40f5-8151-1ea55b8df7e1)" mask="url(#cc3d65c2-a367-4414-a557-9235e092475f)" data-fill-palette-color="primary"></rect></svg><rect width="362.33928571428567" height="247.2" fill="none" stroke="none" visibility="hidden"></rect></g></svg></g></svg>